<svg xmlns="http://www.w3.org/2000/svg" viewBox="0 0 122.38 23.93"><defs><style>.cls-1{fill:#ffd633;}.cls-1,.cls-2{fill-rule:evenodd;}.cls-2{fill:#005dad;}</style></defs><g id="Layer_2" data-name="Layer 2"><g id="Layer_1-2" data-name="Layer 1"><path class="cls-1" d="M3.6,18.44H1.88A1.89,1.89,0,0,0,0,20.33v1.72a1.88,1.88,0,0,0,1.88,1.88H3.6a1.88,1.88,0,0,0,1.88-1.88V20.33A1.89,1.89,0,0,0,3.6,18.44Z"/><path class="cls-1" d="M12.05,13.75H9.17A2.35,2.35,0,0,0,6.82,16.1V19a2.35,2.35,0,0,0,2.35,2.35h2.88A2.35,2.35,0,0,0,14.4,19V16.1A2.35,2.35,0,0,0,12.05,13.75Z"/><path class="cls-1" d="M32,0H19.06a2.36,2.36,0,0,0-2.35,2.36V15.3a2.35,2.35,0,0,0,2.35,2.35H32a2.35,2.35,0,0,0,2.35-2.35V2.36A2.35,2.35,0,0,0,32,0Z"/><path class="cls-2" d="M91.2,15.21a11,11,0,0,1-2.56.33c-2.16,0-2.28-1.24-2.28-1.69s.12-1.59,2.28-1.59H91.2ZM89.46,4.81a7.79,7.79,0,0,0-4.3,1A1.3,1.3,0,0,0,84.54,7a1.17,1.17,0,0,0,1.22,1.12,1.35,1.35,0,0,0,.69-.23,4.54,4.54,0,0,1,2.69-.67A1.87,1.87,0,0,1,91.2,9V9.9H88.64A5.36,5.36,0,0,0,85.09,11a3.53,3.53,0,0,0-1.29,2.86,3.74,3.74,0,0,0,1.29,3,5.26,5.26,0,0,0,3.55,1.1,12.59,12.59,0,0,0,4-.65,1.59,1.59,0,0,0,1.09-1.51V9A4.08,4.08,0,0,0,89.46,4.81Z"/><path class="cls-2" d="M119.75,10.52l-2.43-.79a1.32,1.32,0,0,1-1-1.22c0-.84.67-1.34,1.69-1.34a6.29,6.29,0,0,1,2.45.5,1.88,1.88,0,0,0,.6.12,1.19,1.19,0,0,0,1.19-1.19,1.26,1.26,0,0,0-.82-1.17A7.42,7.42,0,0,0,118,4.81c-2.49,0-4.3,1.57-4.3,3.75a3.39,3.39,0,0,0,2.39,3.4l2,.75c.92.32,1.66.62,1.66,1.54s-.62,1.29-1.81,1.29a5.54,5.54,0,0,1-2.58-.57,1.51,1.51,0,0,0-.57-.15,1.25,1.25,0,0,0-1.24,1.24,1.27,1.27,0,0,0,.77,1.14,8.57,8.57,0,0,0,3.57.7c2.66,0,4.42-1.72,4.42-3.9A3.45,3.45,0,0,0,119.75,10.52Z"/><path class="cls-2" d="M107.42,4.81a6.29,6.29,0,0,0-3.47,1,4.67,4.67,0,0,0-3-1,10.86,10.86,0,0,0-4,.72,1.64,1.64,0,0,0-1,1.52V16.6a1.28,1.28,0,1,0,2.56,0V7.52a7.33,7.33,0,0,1,2.23-.35c1.1,0,2,.37,2,1.82V16.6a1.28,1.28,0,1,0,2.56,0V7.82a4,4,0,0,1,2.13-.65,2.16,2.16,0,0,1,2.14,2.14V16.6a1.26,1.26,0,0,0,1.26,1.3,1.28,1.28,0,0,0,1.29-1.3V9.5A4.58,4.58,0,0,0,107.42,4.81Z"/><path class="cls-2" d="M42.4,10.2c0-2.08.85-3,2.41-3s2.43,1,2.43,3Zm2.41-5.39a5,5,0,0,0-3.6,1.39,5,5,0,0,0-1.36,3.58v3.13a4.94,4.94,0,0,0,1.36,3.59,5,5,0,0,0,3.6,1.4,8.63,8.63,0,0,0,3.77-.85,1.17,1.17,0,0,0,.65-1.11A1.23,1.23,0,0,0,48,14.77a1.45,1.45,0,0,0-.52.12,6.69,6.69,0,0,1-2.68.65,2.28,2.28,0,0,1-1.91-.85,3.58,3.58,0,0,1-.5-2.13h5.79A1.61,1.61,0,0,0,49.8,11V9.78A5,5,0,0,0,48.41,6.2,4.88,4.88,0,0,0,44.81,4.81Z"/><path class="cls-2" d="M75.27,10.2c0-2.08.84-3,2.41-3s2.43,1,2.43,3Zm2.41-5.39a5,5,0,0,0-3.6,1.39,4.93,4.93,0,0,0-1.37,3.58v3.13a4.75,4.75,0,0,0,5,5,8.66,8.66,0,0,0,3.77-.85,1.17,1.17,0,0,0,.65-1.11,1.23,1.23,0,0,0-1.22-1.17,1.4,1.4,0,0,0-.52.12,6.73,6.73,0,0,1-2.68.65,2.27,2.27,0,0,1-1.91-.85,3.51,3.51,0,0,1-.5-2.13h5.78A1.61,1.61,0,0,0,82.67,11V9.78A5,5,0,0,0,81.28,6.2,4.92,4.92,0,0,0,77.68,4.81Z"/><path class="cls-2" d="M71.15,5a9.8,9.8,0,0,0-1.86-.2,3.62,3.62,0,0,0-3.7,3.7V16.6a1.28,1.28,0,1,0,2.56,0V8.31a1.15,1.15,0,0,1,1.14-1.14,5.26,5.26,0,0,1,1.24.2,1.42,1.42,0,0,0,.43,0,1.16,1.16,0,0,0,1.21-1.19A1.24,1.24,0,0,0,71.15,5Z"/><path class="cls-2" d="M60.81,11a3.83,3.83,0,0,1-4.17,4.19H54.36V2.75h2.28A3.82,3.82,0,0,1,60.81,7ZM56.62.24H53.34a1.61,1.61,0,0,0-1.61,1.59V16.06a1.6,1.6,0,0,0,1.61,1.59h3.28a6.43,6.43,0,0,0,6.82-6.75V7A6.43,6.43,0,0,0,56.62.24Z"/></g></g></svg>